<svg version="1.1" xmlns="http://www.w3.org/2000/svg" xmlns:xlink="http://www.w3.org/1999/xlink" width="467.27866" height="335.98215" viewBox="0,0,467.27866,335.98215"><g transform="translate(-4.28462,-12.80616)"><g data-paper-data="{&quot;isPaintingLayer&quot;:true}" fill="#000000" fill-rule="nonzero" stroke="none" stroke-width="0" stroke-linecap="butt" stroke-linejoin="miter" stroke-miterlimit="10" stroke-dasharray="" stroke-dashoffset="0" style="mix-blend-mode: normal"><path d="M48.04337,98.09312c0,-5.59737 0,-14.1727 0,-17.5776c0,-2.771 4.52839,-6.35257 9.20459,-6.35257c1.11007,0 12.7502,-0.34726 12.7502,-0.34726c0,0 -0.02952,-6.09521 -0.03936,-8.12747c-0.00591,-1.21973 2.42042,-2.92167 4.90293,-2.91553c6.30851,0.0156 34.09497,0.08431 44.19365,0.10928c2.30195,0.00569 3.74013,2.05116 3.76791,3.07747c0.02797,1.03341 0.08421,3.11097 0.08421,3.11097c0,0 4.99038,0.115 6.68038,0.15394c1.03347,0.02381 2.55046,1.50665 2.5781,2.2725c0.02978,0.82517 0.09279,2.5714 0.09279,2.5714c0,0 9.16368,0.0947 9.38919,0.0947c6.15547,0 9.99902,2.91114 9.99902,5.31859c0,3.34291 0,12.55122 0,18.48232c0,3.10284 -3.32258,5.30877 -6.99902,5.30877c-10.41354,0 -61.10204,0 -84.6,0c-7.32252,0 -12.00459,-2.15502 -12.00459,-5.17953z"/><path d="M118.49779,251.40984c-15.65358,0 -49.42061,0 -56.35777,0c-2.44913,0 -4.66252,-1.46952 -4.66252,-3.53653c0,-3.95111 0,-21.08539 0,-23.31233c0,-1.60377 2.56044,-3.54308 6.66102,-3.54308c0.15022,0 6.25477,-0.06309 6.25477,-0.06309c0,0 0.04198,-1.16329 0.06181,-1.71299c0.01841,-0.51018 1.02899,-1.498 1.71745,-1.51386c1.12582,-0.02594 4.45025,-0.10255 4.45025,-0.10255c0,0 0.03747,-1.384 0.0561,-2.07242c0.01851,-0.68369 0.97658,-2.04632 2.51006,-2.05011c6.72742,-0.01664 25.23785,-0.06241 29.44038,-0.0728c1.65376,-0.00409 3.2701,1.12968 3.26617,1.94223c-0.00656,1.35382 -0.02622,5.41426 -0.02622,5.41426c0,0 7.75428,0.23134 8.49377,0.23134c3.11513,0 6.1318,2.38592 6.1318,4.23188c0,2.26823 0,18.98084 0,22.70962c0,2.01483 -3.11904,3.45043 -7.99706,3.45043z" data-paper-data="{&quot;index&quot;:null}"/><path d="M58.04336,325.36569c0,-5.59737 0,-14.1727 0,-17.5776c0,-2.77101 2.474,-6.35257 5.02874,-6.35257c0.60647,0 6.96582,-0.34727 6.96582,-0.34727c0,0 -0.01613,-6.09521 -0.0215,-8.12747c-0.00323,-1.21973 1.32235,-2.92167 2.67862,-2.91553c3.44653,0.0156 18.62711,0.08431 24.14433,0.10928c1.25762,0.00569 2.04335,2.05116 2.05853,3.07747c0.01528,1.03342 0.04601,3.11097 0.04601,3.11097c0,0 2.7264,0.11499 3.64969,0.15394c0.56461,0.02382 1.3934,1.50666 1.40849,2.27249c0.01627,0.82517 0.05069,2.57141 0.05069,2.57141c0,0 5.0064,0.0947 5.1296,0.0947c3.36292,0 5.46277,2.91114 5.46277,5.31859c0,3.34291 0,12.55122 0,18.48233c0,3.10285 -1.81523,5.30877 -3.82378,5.30877c-5.68923,0 -33.38189,0 -46.21954,0c-4.00051,0 -6.55847,-2.15502 -6.55847,-5.17953z"/><path d="M262.57939,97.86265c0,-7.68098 0,-19.44847 0,-24.12083c0,-3.80251 4.52839,-8.71731 9.20458,-8.71731c1.11007,0 12.75021,-0.47653 12.75021,-0.47653c0,0 -0.02952,-8.36415 -0.03936,-11.15291c-0.00591,-1.67377 2.42042,-4.00925 4.90292,-4.00083c6.30851,0.02141 34.09497,0.11569 44.19365,0.14997c2.30194,0.00781 3.74014,2.8147 3.76792,4.22305c0.02798,1.4181 0.08421,4.26902 0.08421,4.26902c0,0 4.99038,0.1578 6.68038,0.21124c1.03346,0.03268 2.55047,2.06751 2.5781,3.11843c0.02977,1.13234 0.09278,3.52861 0.09278,3.52861c0,0 9.16368,0.12995 9.38918,0.12995c6.15548,0 9.99902,3.99481 9.99902,7.29843c0,4.5873 0,17.22339 0,25.36234c0,4.25787 -3.32258,7.28495 -6.99902,7.28495c-10.41354,0 -61.10204,0 -84.6,0c-7.32252,0 -12.00458,-2.95722 -12.00458,-7.1076z"/><path d="M395.53832,253.63619c-23.49796,0 -74.18646,0 -84.6,0c-3.67644,0 -6.99902,-1.43308 -6.99902,-3.44883c0,-3.85313 0,-9.8353 0,-12.00701c0,-1.564 3.84354,-3.45522 9.99902,-3.45522c0.2255,0 9.38919,-0.06152 9.38919,-0.06152c0,0 0.06301,-1.13444 0.09278,-1.67051c0.02763,-0.49753 1.54464,-1.46085 2.5781,-1.47632c1.69,-0.0253 6.68037,-0.10001 6.68037,-0.10001c0,0 0.05624,-1.34968 0.08422,-2.02103c0.02778,-0.66674 1.46597,-1.99558 3.76791,-1.99927c10.09868,-0.01622 37.88515,-0.06086 44.19366,-0.071c2.48251,-0.00399 4.90883,1.10167 4.90292,1.89407c-0.00984,1.32025 -0.03936,5.28 -0.03936,5.28c0,0 11.64013,0.2256 12.7502,0.2256c4.6762,0 9.20458,2.32676 9.20458,4.12694c0,2.21198 0,7.78294 0,11.41926c0,1.96486 -4.68206,3.36487 -12.00458,3.36487z" data-paper-data="{&quot;index&quot;:null}"/><path d="M287.40191,192.05992c-38.38217,0 -121.17806,0 -138.18781,0c-6.00519,0 -11.43238,-3.60321 -11.43238,-8.67148c0,-9.68802 0,-24.72912 0,-30.1895c0,-3.93239 6.27815,-8.68753 16.33266,-8.68753c0.36834,0 15.33654,-0.15469 15.33654,-0.15469c0,0 0.10292,-2.85235 0.15156,-4.2002c0.04514,-1.25094 2.52305,-3.67305 4.21113,-3.71195c2.76048,-0.06361 10.9119,-0.25145 10.9119,-0.25145c0,0 0.09186,-3.39352 0.13756,-5.08153c0.04538,-1.6764 2.39455,-5.01752 6.15461,-5.02682c16.49545,-0.04079 61.88257,-0.15303 72.18705,-0.17851c4.05499,-0.01003 8.01821,2.76996 8.00856,4.76229c-0.01607,3.31954 -0.06429,13.27562 -0.06429,13.27562c0,0 19.01329,0.56723 20.82651,0.56723c7.63822,0 15.03501,5.85022 15.03501,10.37645c0,5.56164 0,19.56882 0,28.7117c0,4.9403 -7.64781,8.46037 -19.6086,8.46037z" data-paper-data="{&quot;index&quot;:null}"/><path d="M183.57575,288.60877c0,-5.59736 0,-14.1727 0,-17.57759c0,-2.77101 4.52839,-6.35257 9.20458,-6.35257c1.11007,0 12.7502,-0.34726 12.7502,-0.34726c0,0 -0.02952,-16.09522 -0.03936,-18.12747c-0.0059,-1.21973 2.42042,-2.92167 4.90292,-2.91553c6.30851,0.0156 20.09497,0.08431 30.19366,0.10928c2.30194,0.00569 3.74013,12.05116 3.76791,13.07747c0.02798,1.03342 0.08422,3.11097 0.08422,3.11097c0,0 4.99038,0.11499 6.68037,0.15394c1.03346,0.02382 2.55047,1.50666 2.5781,2.2725c0.02977,0.82517 0.09278,2.57141 0.09278,2.57141c0,0 9.16369,0.0947 9.38919,0.0947c6.15548,0 9.99902,2.91114 9.99902,5.31859c0,3.34291 0,12.55122 0,18.48233c0,3.10285 -3.32258,5.30877 -6.99902,5.30877c-10.41354,0 -47.10204,0 -70.6,0c-7.32252,0 -12.00458,-2.15502 -12.00458,-5.17953z"/><path d="M357.95968,293.60877c0,-5.59737 0,-14.1727 0,-17.5776c0,-2.77101 1.8538,-6.35257 3.76811,-6.35257c0.45444,0 5.21959,-0.34726 5.21959,-0.34726c0,0 -0.01208,-6.09522 -0.01611,-8.12747c-0.00242,-1.21973 0.99086,-2.92167 2.00713,-2.91553c2.58254,0.0156 13.95757,0.08431 18.0917,0.10928c0.94235,0.00569 1.53111,2.05116 1.54248,3.07747c0.01145,1.03342 0.03448,3.11097 0.03448,3.11097c0,0 2.04293,0.11499 2.73477,0.15394c0.42307,0.02382 1.04409,1.50666 1.05541,2.2725c0.01219,0.82517 0.03798,2.57141 0.03798,2.57141c0,0 3.75137,0.0947 3.84368,0.0947c2.51989,0 4.09333,2.91114 4.09333,5.31859c0,3.34291 0,12.55122 0,18.48233c0,3.10285 -1.36018,5.30877 -2.86521,5.30877c-4.26303,0 -25.01355,0 -34.63299,0c-2.99764,0 -4.91436,-2.15502 -4.91436,-5.17952z"/><path d="M453.67187,58.13727c-23.49796,0 -74.18646,0 -84.6,0c-3.67644,0 -6.99902,-1.62629 -6.99902,-3.91382c0,-4.37263 0,-11.16133 0,-13.62584c0,-1.77486 3.84354,-3.92106 9.99902,-3.92106c0.2255,0 9.38919,-0.06982 9.38919,-0.06982c0,0 0.06301,-1.28739 0.09278,-1.89573c0.02763,-0.56461 1.54464,-1.65781 2.5781,-1.67537c1.69,-0.02871 6.68037,-0.11349 6.68037,-0.11349c0,0 0.05624,-1.53165 0.08422,-2.29352c0.02778,-0.75663 1.46597,-2.26463 3.76791,-2.26882c10.09868,-0.01841 37.88515,-0.06907 44.19366,-0.08057c2.48251,-0.00453 4.90883,1.2502 4.90292,2.14943c-0.00984,1.49825 -0.03936,5.99187 -0.03936,5.99187c0,0 11.64013,0.25602 12.7502,0.25602c4.6762,0 9.20459,2.64046 9.20459,4.68335c0,2.51021 0,8.83226 0,12.95884c0,2.22977 -4.68207,3.81853 -12.00459,3.81853z" data-paper-data="{&quot;index&quot;:null}"/><path d="M459.5587,125.21515c-23.49796,0 -74.18646,0 -84.6,0c-3.67644,0 -6.99902,-1.62628 -6.99902,-3.91381c0,-4.37262 0,-11.16133 0,-13.62584c0,-1.77486 3.84354,-3.92106 9.99902,-3.92106c0.2255,0 9.38918,-0.06981 9.38918,-0.06981c0,0 0.06301,-1.28739 0.09278,-1.89573c0.02763,-0.56461 1.54464,-1.65781 2.5781,-1.67537c1.69,-0.02871 6.68038,-0.11349 6.68038,-0.11349c0,0 0.05624,-1.53164 0.08421,-2.29351c0.02778,-0.75664 1.46597,-2.26462 3.76792,-2.26882c10.09868,-0.01841 37.88514,-0.06907 44.19365,-0.08057c2.48251,-0.00453 4.90883,1.2502 4.90293,2.14943c-0.00984,1.49825 -0.03936,5.99187 -0.03936,5.99187c0,0 11.64013,0.25601 12.75021,0.25601c4.6762,0 9.20458,2.64046 9.20458,4.68335c0,2.51021 0,8.83227 0,12.95884c0,2.22978 -4.68206,3.81853 -12.00458,3.81853z" data-paper-data="{&quot;index&quot;:null}"/><path d="M212.85182,48.2945c-16.25699,0 -51.32567,0 -58.53025,0c-2.54353,0 -4.84225,-1.12514 -4.84225,-2.70776c0,-3.02519 0,-7.72193 0,-9.427c0,-1.22793 2.65914,-2.71278 6.91779,-2.71278c0.15601,0 6.49588,-0.0483 6.49588,-0.0483c0,0 0.04359,-0.89067 0.06419,-1.31156c0.01912,-0.39062 1.06865,-1.14695 1.78365,-1.1591c1.16922,-0.01986 4.6218,-0.07852 4.6218,-0.07852c0,0 0.03891,-1.05966 0.05826,-1.58676c0.01922,-0.52348 1.01423,-1.56677 2.60682,-1.56968c6.98674,-0.01274 26.21072,-0.04779 30.57525,-0.05574c1.71751,-0.00313 3.39616,0.86495 3.39207,1.48708c-0.00681,1.03656 -0.02723,4.14545 -0.02723,4.14545c0,0 8.05319,0.17712 8.82119,0.17712c3.23521,0 6.36816,1.82679 6.36816,3.24016c0,1.73668 0,6.11058 0,8.96554c0,1.54266 -3.23927,2.64184 -8.30534,2.64184z" data-paper-data="{&quot;index&quot;:null}"/><path d="M98.86509,164.48043c-23.49796,0 -74.18646,0 -84.6,0c-3.67644,0 -6.99902,-1.62628 -6.99902,-3.91381c0,-4.37262 0,-11.16133 0,-13.62584c0,-1.77486 3.84354,-3.92106 9.99902,-3.92106c0.2255,0 9.38918,-0.06981 9.38918,-0.06981c0,0 0.06301,-1.28739 0.09278,-1.89573c0.02763,-0.56461 1.54464,-1.65781 2.5781,-1.67537c1.69,-0.02871 6.68038,-0.11349 6.68038,-0.11349c0,0 0.05624,-1.53164 0.08421,-2.29351c0.02778,-0.75664 1.46597,-2.26463 3.76792,-2.26882c10.09868,-0.01841 37.88514,-0.06907 44.19365,-0.08057c2.48251,-0.00453 4.90883,1.2502 4.90293,2.14943c-0.00984,1.49825 -0.03936,5.99186 -0.03936,5.99186c0,0 11.64013,0.25601 12.75021,0.25601c4.6762,0 9.20458,2.64046 9.20458,4.68335c0,2.51021 0,8.83226 0,12.95884c0,2.22978 -4.68206,3.81853 -12.00458,3.81853z" data-paper-data="{&quot;index&quot;:null}"/><path d="M62.95271,31.92988c-15.05016,0 -47.51554,0 -54.1853,0c-2.35472,0 -4.48279,-1.04162 -4.48279,-2.50675c0,-2.80061 0,-7.1487 0,-8.72719c0,-1.13678 2.46174,-2.5114 6.40425,-2.5114c0.14443,0 6.01366,-0.04472 6.01366,-0.04472c0,0 0.04036,-0.82455 0.05943,-1.21419c0.0177,-0.36162 0.98932,-1.06181 1.65124,-1.07305c1.08242,-0.01839 4.2787,-0.07269 4.2787,-0.07269c0,0 0.03602,-0.981 0.05394,-1.46897c0.01779,-0.48462 0.93894,-1.45047 2.4133,-1.45315c6.46809,-0.01179 24.26499,-0.04424 28.30551,-0.0516c1.59001,-0.0029 3.14405,0.80074 3.14027,1.37668c-0.0063,0.95961 -0.02521,3.83772 -0.02521,3.83772c0,0 7.45537,0.16397 8.16635,0.16397c2.99505,0 5.89543,1.69118 5.89543,2.99963c0,1.60776 0,5.65696 0,8.29999c0,1.42814 -2.99881,2.44572 -7.68879,2.44572z" data-paper-data="{&quot;index&quot;:null}"/><path d="M439.39563,177.75652c0,-4.12658 0,-10.44863 0,-12.95884c0,-2.04288 1.34989,-4.68334 2.74385,-4.68334c0.33091,0 3.80078,-0.25602 3.80078,-0.25602c0,0 -0.0088,-4.49362 -0.01173,-5.99186c-0.00176,-0.89923 0.72152,-2.15395 1.46154,-2.14943c1.88054,0.0115 10.16357,0.06216 13.17395,0.08057c0.6862,0.0042 1.11492,1.51219 1.1232,2.26882c0.00834,0.76187 0.0251,2.29352 0.0251,2.29352c0,0 1.48761,0.08478 1.99139,0.11349c0.30807,0.01755 0.76028,1.11076 0.76852,1.67537c0.00888,0.60834 0.02766,1.89573 0.02766,1.89573c0,0 2.73166,0.06982 2.79888,0.06982c1.83492,0 2.98067,2.1462 2.98067,3.92106c0,2.46451 0,9.25321 0,13.62584c0,2.28753 -0.99045,3.91381 -2.08638,3.91381c-3.10423,0 -18.21427,0 -25.21891,0c-2.18281,0 -3.57852,-1.58875 -3.57852,-3.81853z" data-paper-data="{&quot;index&quot;:null}"/><path d="M404.30208,200.76427c-7.00464,0 -22.11467,0 -25.21891,0c-1.09593,0 -2.08638,-1.62628 -2.08638,-3.91381c0,-4.37262 0,-11.16133 0,-13.62584c0,-1.77486 1.14575,-3.92106 2.98067,-3.92106c0.06722,0 2.79888,-0.06982 2.79888,-0.06982c0,0 0.01878,-1.28739 0.02766,-1.89573c0.00824,-0.56461 0.46045,-1.65781 0.76852,-1.67537c0.50378,-0.02871 1.99139,-0.11349 1.99139,-0.11349c0,0 0.01677,-1.53164 0.0251,-2.29351c0.00828,-0.75663 0.437,-2.26462 1.1232,-2.26882c3.01038,-0.01841 11.29341,-0.06907 13.17395,-0.08057c0.74003,-0.00453 1.4633,1.2502 1.46155,2.14943c-0.00293,1.49825 -0.01173,5.99186 -0.01173,5.99186c0,0 3.46988,0.25602 3.80079,0.25602c1.39396,0 2.74385,2.64046 2.74385,4.68335c0,2.51021 0,8.83227 0,12.95884c0,2.22977 -1.39571,3.81853 -3.57852,3.81853z" data-paper-data="{&quot;index&quot;:null}"/><path d="M321.69257,155.43108c0,-3.60012 0,-9.11562 0,-11.30559c0,-1.78226 2.86162,-4.08585 5.81664,-4.08585c0.70149,0 8.05722,-0.22335 8.05722,-0.22335c0,0 -0.01865,-3.92033 -0.02488,-5.22744c-0.00373,-0.78451 1.52954,-1.87916 3.0983,-1.87521c3.98652,0.01003 21.54558,0.05423 27.92722,0.07029c1.45466,0.00366 2.3635,1.31926 2.38105,1.97937c0.01768,0.66467 0.05322,2.00091 0.05322,2.00091c0,0 3.15356,0.07396 4.22151,0.09901c0.65307,0.01532 1.6117,0.96906 1.62917,1.46163c0.01881,0.53073 0.05864,1.65388 0.05864,1.65388c0,0 5.79079,0.06091 5.93329,0.06091c3.88982,0 6.31867,1.8724 6.31867,3.42082c0,2.15009 0,8.07271 0,11.88749c0,1.99569 -2.09964,3.4145 -4.42288,3.4145c-6.58061,0 -38.61211,0 -53.46113,0c-4.62731,0 -7.58604,-1.38607 -7.58604,-3.33137z" data-paper-data="{&quot;index&quot;:null}"/><path d="M431.33813,248.24536c0,-6.45532 0,-16.34509 0,-20.27188c0,-3.19574 1.3499,-7.32628 2.74385,-7.32628c0.33091,0 3.80079,-0.40049 3.80079,-0.40049c0,0 -0.0088,-7.02948 -0.01173,-9.37324c-0.00176,-1.40669 0.72152,-3.36949 1.46155,-3.36241c1.88054,0.01799 10.16357,0.09724 13.17395,0.12604c0.6862,0.00656 1.11492,2.36555 1.1232,3.54918c0.00834,1.19181 0.0251,3.58781 0.0251,3.58781c0,0 1.48761,0.13262 1.99139,0.17754c0.30807,0.02746 0.76028,1.7376 0.76852,2.62083c0.00887,0.95165 0.02766,2.96554 0.02766,2.96554c0,0 2.73165,0.10921 2.79888,0.10921c1.83492,0 2.98067,3.35737 2.98067,6.13383c0,3.8553 0,14.47506 0,21.31527c0,3.57845 -0.99045,6.12249 -2.08638,6.12249c-3.10424,0 -18.21427,0 -25.21891,0c-2.18282,0 -3.57852,-2.48533 -3.57852,-5.97343z" data-paper-data="{&quot;index&quot;:null}"/><path d="M163.57575,343.60877c0,-5.59736 0,-14.1727 0,-17.57759c0,-2.77101 4.52839,-6.35257 9.20458,-6.35257c1.11007,0 -0.2498,-0.34726 -0.2498,-0.34726c0,0 -0.02952,-6.09522 -0.03936,-8.12747c-0.0059,-1.21973 2.42042,-2.92167 4.90292,-2.91553c6.30851,0.0156 34.09497,0.08431 44.19366,0.10928c2.30194,0.00569 3.74013,2.05116 3.76791,3.07747c0.02798,1.03342 0.08422,3.11097 0.08422,3.11097c0,0 4.99038,0.11499 6.68037,0.15394c1.03346,0.02382 2.55047,1.50666 2.5781,2.2725c0.02977,0.82517 0.09278,2.57141 0.09278,2.57141c0,0 9.16369,0.0947 9.38919,0.0947c6.15548,0 9.99902,2.91114 9.99902,5.31859c0,3.34291 0,12.55122 0,18.48233c0,3.10285 -3.32258,5.30877 -6.99902,5.30877c-10.41354,0 -48.10204,0 -71.6,0c-7.32252,0 -12.00458,-2.15502 -12.00458,-5.17953z"/></g></g></svg>