<svg version="1.1" xmlns="http://www.w3.org/2000/svg" xmlns:xlink="http://www.w3.org/1999/xlink" width="192.31314" height="133.91111" viewBox="0,0,192.31314,133.91111"><g transform="translate(-175.6397,-138.10045)"><g data-paper-data="{&quot;isPaintingLayer&quot;:true}" fill-rule="nonzero" stroke-width="0" stroke-linecap="butt" stroke-linejoin="miter" stroke-miterlimit="10" stroke-dasharray="" stroke-dashoffset="0" style="mix-blend-mode: normal"><path d="M198.10045,180c0,-23.14048 18.75907,-41.89955 41.89955,-41.89955c23.14048,0 41.89955,18.75907 41.89955,41.89955c0,23.14048 -18.75907,41.89955 -41.89955,41.89955c-23.14048,0 -41.89955,-18.75907 -41.89955,-41.89955z" fill="#bf0000" stroke="none"/><path d="M239.88641,206.48791c-19.45439,0 -35.22529,-14.19381 -35.22529,-31.70276c0,-17.50895 15.7709,-31.70276 35.22529,-31.70276c19.45439,0 35.22529,14.19381 35.22529,31.70276c0,17.50895 -15.7709,31.70276 -35.22529,31.70276z" fill="#ff0000" stroke="#000000"/><path d="M314.08199,230.88434v-82.83367h53.87085v82.83367z" fill="none" stroke="none"/><path d="M175.6397,272.01155v-36.20353h114.98241v36.20353z" fill="none" stroke="none"/></g></g></svg>