<svg version="1.1" xmlns="http://www.w3.org/2000/svg" xmlns:xlink="http://www.w3.org/1999/xlink" width="100.31259" height="53.83283" viewBox="0,0,100.31259,53.83283"><g transform="translate(-181.93981,-81.603)"><g data-paper-data="{&quot;isPaintingLayer&quot;:true}" fill-rule="nonzero" stroke-linecap="butt" stroke-linejoin="miter" stroke-miterlimit="10" stroke-dasharray="" stroke-dashoffset="0" style="mix-blend-mode: normal"><g><path d="M234.09927,117.43583c0,-9.1127 -7.02354,-16.5 -15.6875,-16.5c-8.66396,0 -15.6875,7.3873 -15.6875,16.5c0,9.1127 7.02354,16.5 15.6875,16.5c8.66396,0 15.6875,-7.3873 15.6875,-16.5z" fill="#e8e8e8" stroke="#000000" stroke-width="3"/><path d="M232.22427,116.43583c0,-5.24671 -3.296,-14.125 -13.6875,-14.125c-7.7665,0 -14.4375,8.87829 -14.4375,14.125c0,5.24671 6.296,9.5 14.0625,9.5c7.7665,0 14.0625,-4.25329 14.0625,-9.5z" fill="#ffffff" stroke="none" stroke-width="0"/></g><path d="M183.43981,127.67657c0,-5.98825 0,-27.65362 0,-37.05027c0,-2.70899 2.10849,-5.04776 4.88891,-5.75453c3.31855,-0.84356 7.59428,-1.76876 10.38472,-1.76876c5.20384,0 17.22636,4.61829 17.22636,6.57356c0,0.38786 0.29891,3.65572 -3.06445,4.5824c-7.35122,2.02541 -21.81055,2.30948 -21.81055,3.5426c0,2.81306 -0.64641,22.98732 1.40931,26.75556c1.3356,2.44822 15.70861,3.8552 14.71541,-2.10009c-0.72044,-4.31976 -5.5145,-6.22311 -4.32836,-7.18556c1.94808,-1.5807 10.69145,-0.19906 11.03846,0.32341c1.77868,2.67803 1.43261,9.87346 0.9998,14.40279c-0.21873,2.28895 -3.92115,3.89701 -6.68598,3.89701c-3.68814,0 -13.52277,0 -19.63357,0c-3.02686,0 -5.14007,-3.23005 -5.14007,-6.21811z" fill="#e8e8e8" stroke="#000000" stroke-width="3"/><path d="M227.23604,127.36396c0,-10.38366 0,-32.95643 0,-37.75c0,-1.7576 2.70379,-3.375 5.375,-3.375c1.78828,0 3.56195,0 4.5,0c1.28934,0 3,0.97879 3,2.625c0,6.1117 0,21.4227 0,30c0,1.47669 1.30024,5.17691 2.99935,5.26293c2.96799,0.15026 6.65301,-1.75617 7.25065,2.86207c0.82942,6.40921 -10.25,5.625 -10.25,5.625c0,0 -5.54683,0 -7.875,0c-1.85513,0 -5,-2.04402 -5,-5.25z" fill="#e8e8e8" stroke="#000000" stroke-width="2.5"/><path d="M253.5024,128.7056c0,-4.9567 0,-31.17735 0,-39.625c0,-1.65258 1.36013,-2.625 2.40666,-2.625c1.96311,0 8.46834,0 8.46834,0c0,0 16.26659,0.01385 16.625,2.5c1.875,13.0063 -16.625,7.53345 -16.625,10.125c0,1.75341 0,4.2113 0,7c0,1.04354 16.375,1.2584 16.375,2.375c0,2.64501 -16.375,6.31509 -16.375,9c0,4.17638 0,8.0862 0,10.75c0,2.15941 -1.07573,3.5 -1.96834,3.5c-1.08517,0 -3.83916,0 -6,0c-1.62003,0 -2.90666,-1.42081 -2.90666,-3z" fill="#e8e8e8" stroke="#000000" stroke-width="2.5"/></g></g></svg>